<svg version="1.0" xmlns="http://www.w3.org/2000/svg"
 width="300.000000pt" height="300.000000pt" viewBox="0 0 300.000000 300.000000"
 preserveAspectRatio="xMidYMid meet">

<g transform="translate(0.000000,300.000000) scale(0.100000,-0.100000)"
fill="#000000" stroke="none">
<path d="M1303 2899 c-104 -15 -244 -55 -351 -99 -56 -23 -102 -45 -102 -49 0
-3 47 -23 104 -44 57 -21 166 -69 243 -106 585 -287 834 -697 653 -1077 -18
-36 -61 -102 -97 -146 l-66 -80 59 6 c33 3 226 17 429 31 204 14 394 27 423
31 42 4 53 2 58 -11 4 -9 5 -18 3 -20 -4 -3 -794 -231 -1859 -535 -234 -67
-428 -125 -432 -129 -11 -10 121 -161 204 -232 186 -160 405 -268 651 -321
146 -31 408 -31 554 0 277 60 516 187 709 377 122 121 203 233 280 390 109
224 151 424 141 670 -16 373 -149 678 -411 941 -220 220 -483 353 -786 399
-103 16 -309 18 -407 4z"/>
<path d="M649 2625 c-271 -203 -466 -518 -536 -862 -13 -65 -18 -134 -17 -263
0 -195 18 -304 75 -467 36 -102 126 -283 141 -283 26 0 201 66 283 107 271
135 434 331 509 612 97 362 32 756 -170 1031 -50 69 -170 190 -188 190 -6 0
-50 -29 -97 -65z"/>
</g>
</svg>